<?xml version="1.0" standalone="no"?>
<!DOCTYPE svg PUBLIC "-//W3C//DTD SVG 20010904//EN"
 "http://www.w3.org/TR/2001/REC-SVG-20010904/DTD/svg10.dtd">
<svg version="1.0" xmlns="http://www.w3.org/2000/svg"
 width="1333.000000pt" height="1333.000000pt" viewBox="0 0 1333.000000 1333.000000"
 preserveAspectRatio="xMidYMid meet">
<metadata>
Created by potrace 1.15, written by Peter Selinger 2001-2017
</metadata>
<g transform="translate(0.000000,1333.000000) scale(0.100000,-0.100000)"
fill="#000000" stroke="none">
<path d="M8274 13221 c-94 -70 -221 -269 -413 -651 -207 -411 -382 -800 -908
-2025 -640 -1489 -904 -2090 -1251 -2845 -726 -1584 -1391 -2867 -2033 -3930
-176 -290 -391 -631 -396 -626 -6 6 -81 396 -117 606 -46 268 -90 557 -176
1154 -117 810 -173 1145 -244 1455 -124 539 -268 826 -440 876 -67 20 -137 15
-231 -17 -452 -151 -966 -985 -1396 -2268 -335 -1000 -560 -2103 -620 -3038
-15 -244 -7 -785 15 -951 53 -394 148 -651 301 -807 75 -77 140 -115 234 -140
143 -36 416 43 651 189 400 250 860 722 1365 1402 167 225 311 429 460 653 59
89 111 162 114 162 3 0 14 -28 24 -63 67 -225 191 -507 288 -652 207 -310 412
-409 774 -375 229 21 380 63 585 161 386 186 737 525 1077 1042 231 351 431
744 758 1492 219 502 313 686 375 740 l23 20 -6 -175 c-16 -416 -19 -981 -8
-1185 20 -360 69 -738 142 -1079 78 -369 108 -449 203 -553 92 -101 167 -117
271 -59 46 25 65 43 82 77 29 56 43 176 42 344 l-1 130 -24 -92 c-43 -166
-102 -283 -143 -283 -24 0 -48 28 -65 77 -23 64 -93 660 -131 1108 -64 750
-73 1728 -24 2494 l11 163 -34 35 c-45 47 -79 63 -134 63 -55 0 -118 -27 -158
-68 -19 -20 -54 -102 -115 -268 -792 -2139 -1543 -3332 -2355 -3741 -167 -84
-389 -143 -540 -143 -162 0 -359 186 -506 480 -59 119 -148 350 -191 497 l-33
112 49 78 c1141 1837 2447 4423 3730 7388 351 812 805 1908 950 2298 10 26 21
47 25 47 7 0 39 -252 59 -465 36 -372 39 -1025 7 -1405 -66 -767 -220 -1505
-506 -2415 -38 -121 -157 -481 -266 -800 -108 -319 -230 -686 -271 -815 -41
-129 -92 -289 -114 -355 -23 -71 -39 -139 -39 -167 0 -42 3 -49 30 -63 84 -43
197 18 292 158 47 69 199 388 295 617 422 1010 726 2151 863 3237 114 899 119
1787 14 2618 -33 264 -81 544 -95 561 -20 24 -81 17 -125 -15z m-5991 -6479
c86 -172 165 -401 233 -675 90 -366 158 -750 304 -1717 98 -651 145 -928 211
-1254 l50 -250 -62 -90 c-655 -952 -1322 -1707 -1944 -2200 -202 -159 -203
-160 -303 -160 -67 0 -97 4 -133 20 -139 64 -230 229 -280 509 -21 117 -23
161 -24 435 0 379 22 622 101 1100 277 1686 1006 3691 1552 4272 69 72 182
158 209 158 6 0 45 -67 86 -148z"/>
<path d="M13175 7324 c-307 -193 -507 -264 -746 -264 -161 0 -251 17 -447 86
-194 68 -300 87 -447 82 -170 -6 -205 -35 -205 -168 0 -109 36 -158 147 -200
134 -50 738 -89 948 -61 171 23 367 106 538 228 99 71 275 238 317 301 29 44
38 72 23 72 -5 -1 -62 -35 -128 -76z"/>
<path d="M9290 6617 c0 -8 11 -47 25 -88 70 -203 165 -586 249 -998 l52 -255
-141 -140 c-368 -368 -681 -805 -895 -1249 -123 -255 -156 -387 -147 -592 10
-226 76 -465 197 -710 226 -462 563 -786 871 -841 181 -32 331 18 469 158 153
154 178 274 187 871 11 771 -66 1593 -223 2366 -19 95 -33 179 -30 186 8 22
213 153 326 210 224 112 435 168 645 169 236 2 285 -36 332 -254 15 -73 18
-132 18 -410 -1 -352 -10 -477 -81 -1079 -127 -1088 -135 -1169 -141 -1511 -4
-236 -2 -301 11 -379 20 -115 48 -182 93 -221 29 -26 41 -30 91 -30 72 0 126
25 174 78 96 107 148 303 148 557 l-1 120 -44 -132 c-67 -202 -149 -364 -175
-348 -24 15 -40 443 -29 740 12 315 28 502 99 1145 75 677 90 860 90 1124 0
229 -10 338 -41 459 -41 161 -127 286 -232 336 -47 23 -55 23 -220 18 -192 -6
-262 -18 -442 -78 -160 -53 -350 -149 -520 -263 -77 -52 -143 -91 -147 -88 -3
4 -18 52 -33 107 -89 331 -210 630 -333 820 -43 67 -176 215 -194 215 -4 0 -8
-6 -8 -13z m404 -1812 c154 -1002 186 -1818 91 -2287 -31 -150 -94 -306 -148
-365 -18 -20 -30 -23 -102 -23 -253 0 -458 166 -631 511 -129 256 -225 624
-227 864 -1 99 2 120 32 208 108 324 477 884 844 1281 l91 99 8 -29 c4 -16 23
-132 42 -259z"/>
</g>
</svg>
