<svg width="126" height="126" viewBox="0 0 126 126" fill="none" xmlns="http://www.w3.org/2000/svg">
<path d="M9.80469 93C8.73698 93 8.20312 92.4661 8.20312 91.3984V34.6016C8.20312 33.5339 8.73698 33 9.80469 33H41.0156C42.0833 33 42.6172 33.5339 42.6172 34.6016V39.7578C42.6172 40.8255 42.0833 41.3594 41.0156 41.3594H19.0234C17.9557 41.3594 17.4219 41.8932 17.4219 42.9609V57.2969C17.4219 58.3646 17.9557 58.8984 19.0234 58.8984H37.8906C38.9583 58.8984 39.4922 59.4323 39.4922 60.5V65.6172C39.4922 66.6849 38.9583 67.2188 37.8906 67.2188H19.0234C17.9557 67.2188 17.4219 67.7526 17.4219 68.8203V83.0391C17.4219 84.1068 17.9557 84.6406 19.0234 84.6406H41.0156C42.0833 84.6406 42.6172 85.1745 42.6172 86.2422V91.3984C42.6172 92.4661 42.0833 93 41.0156 93H9.80469ZM57.2266 93C56.1589 93 55.625 92.4661 55.625 91.3984V34.6016C55.625 33.5339 56.1589 33 57.2266 33H66.0156C66.9531 33 67.5781 33.4036 67.8906 34.2109L85.6641 74.9922C85.9245 75.6432 86.263 75.9688 86.6797 75.9688C87.0964 75.9688 87.4479 75.6432 87.7344 74.9922L105.508 34.2109C105.82 33.4036 106.445 33 107.383 33H116.133C117.201 33 117.734 33.5339 117.734 34.6016V91.3984C117.734 92.4661 117.201 93 116.133 93H110.117C109.049 93 108.516 92.4661 108.516 91.3984V52.0234C108.516 51.2422 108.281 50.7995 107.812 50.6953C107.37 50.5651 106.992 50.8776 106.68 51.6328L89.4531 91.7891C89.1406 92.5964 88.5026 93 87.5391 93H85.7422C84.7786 93 84.1406 92.5964 83.8281 91.7891L66.6797 51.6719C66.3672 50.9167 65.9766 50.5911 65.5078 50.6953C65.0651 50.7995 64.8438 51.2552 64.8438 52.0625V91.3984C64.8438 92.4661 64.3099 93 63.2422 93H57.2266Z" fill="white"/>
</svg>
